<?xml version="1.0" encoding="utf-8"?>
<!-- Generator: Adobe Illustrator 24.0.0, SVG Export Plug-In . SVG Version: 6.00 Build 0)  -->
<svg version="1.1" id="Layer_1" xmlns="http://www.w3.org/2000/svg" xmlns:xlink="http://www.w3.org/1999/xlink" x="0px" y="0px"
	 viewBox="0 0 107 21.9" style="enable-background:new 0 0 107 21.9;" xml:space="preserve">
<style type="text/css">
	.st0{fill:#B62C3F;}
	.st1{fill:#6B6C70;}
</style>
<path class="st0" d="M11,10.7c1-1.6,1.9-3.1,3.1-4.5c0.1-0.1,0.3-0.3,0.4-0.4c0.1-0.1,0.1-0.2,0.1-0.3c-0.1-0.1-0.2-0.1-0.3,0
	c-1.2,0.9-2.5,0.4-3.7,0.4C9.1,5.8,7.5,5.5,5.9,5.8c-2,0.4-3.3,1.6-3.7,3.5c-0.4,1.6,0.6,3.3,2.2,3.9c0.1,0,0.1,0,0.2,0.1
	c0.1,0,0.3,0.1,0.3,0C4.9,13,4.7,13,4.6,13c-1.3-0.5-1.9-1.6-1.7-3c0.2-1.9,1.5-3.1,3.6-3.4C7.3,6.4,8.1,6.4,9,6.5
	c1.4,0.1,2.8,0.1,4.3-0.1c-0.4,0.3-0.6,0.5-0.9,0.7c-1.3,1-2.3,2.2-3.2,3.5c-0.2,0.2-0.3,0.3-0.6,0.3c-0.6,0-1.2,0.1-1.8,0.2
	c-0.1,0-0.2,0-0.2,0.2c0,0.2,0.2,0.2,0.3,0.2c0.6,0,1.2,0,1.8,0c-0.3,0.4-0.5,0.8-0.8,1.2C7,13.8,6,15.2,4.7,16.2
	c-0.6,0.5-1.3,0.9-2.2,0.9c-0.4,0-0.8-0.1-0.9-0.5c-0.2-0.4,0-0.7,0.2-1c0.1-0.2,0.3-0.3,0.3-0.6c0.1-0.5,0.1-0.9-0.3-1.3
	c-0.4-0.3-0.8-0.3-1.2-0.1c-0.2,0.1-0.2,0.1-0.3-0.1c-0.8-3.5-0.1-6.7,2.1-9.5c1.9-2.3,4.3-3.7,7.3-4C14-0.3,17.5,1.3,20,4.8
	c0.1,0.1,0.3,0.2,0,0.4c-1.7,0.8-3,2.1-4.3,3.5c-0.5,0.6-1,1.2-1.5,1.8c-0.1,0.1-0.2,0.2-0.4,0.2C12.9,10.7,12,10.7,11,10.7z"/>
<path class="st0" d="M13.7,11.2c-0.4,0.6-0.8,1.2-1.1,1.8c-0.4,0.6-0.7,1.3-0.9,2c-0.4,1.4,0.5,2.3,1.9,2c0.8-0.2,1.4-0.6,1.9-1.1
	c0.5-0.4,0.9-0.9,1.3-1.3c0.1-0.1,0.3-0.2,0.1-0.4c-0.1-0.1-0.2,0.1-0.3,0.2c-0.6,0.6-1.2,1.2-1.9,1.7c-0.3,0.2-0.6,0.4-1,0.4
	c-0.4,0-0.5-0.1-0.6-0.5c0-0.5,0.2-0.9,0.4-1.3c0.6-1.2,1.3-2.3,2-3.4c0.1-0.2,0.2-0.2,0.4-0.2c0.6,0,1.1,0,1.7,0c0.1,0,0.3,0,0.4,0
	c0.1,0,0.3,0,0.3-0.2c0-0.1-0.2-0.1-0.3-0.1c-0.5-0.1-1.1-0.1-1.6-0.1c-0.1,0-0.3,0-0.5,0c0.3-0.6,0.7-1.1,1.1-1.6
	C18,8,18.9,6.9,20,5.9c0.5-0.4,0.5-0.4,0.8,0.2c3.1,6.5-0.6,14.1-7.6,15.5c-4.4,0.9-8-0.6-10.9-4c0,0-0.1-0.1-0.1-0.1c0,0,0,0,0-0.1
	c0.5,0,1,0,1.5-0.1C5.2,17,6.5,16.1,7.6,15c1.1-1,2.1-2.2,2.9-3.5c0.2-0.2,0.3-0.3,0.6-0.3C12,11.2,12.8,11.2,13.7,11.2z"/>
<g>
	<path class="st1" d="M30.6,14.1v5h-0.5v-2.3h-2.9v2.3h-0.5v-5h0.5v2.2h2.9v-2.2H30.6z"/>
	<path class="st1" d="M33.8,19.1c-0.3,0-0.7-0.1-0.9-0.2c-0.3-0.1-0.5-0.3-0.7-0.6c-0.2-0.2-0.4-0.5-0.5-0.8
		c-0.1-0.3-0.2-0.6-0.2-0.9c0-0.3,0.1-0.6,0.2-1c0.1-0.3,0.3-0.6,0.5-0.8c0.2-0.2,0.5-0.4,0.7-0.6c0.3-0.1,0.6-0.2,0.9-0.2
		c0.3,0,0.7,0.1,0.9,0.2c0.3,0.1,0.5,0.3,0.7,0.6s0.4,0.5,0.5,0.8c0.1,0.3,0.2,0.6,0.2,0.9c0,0.3-0.1,0.6-0.2,1
		c-0.1,0.3-0.3,0.6-0.5,0.8c-0.2,0.2-0.5,0.4-0.7,0.6S34.1,19.1,33.8,19.1z M32,16.6c0,0.3,0,0.5,0.1,0.8c0.1,0.2,0.2,0.5,0.4,0.7
		c0.2,0.2,0.4,0.3,0.6,0.5s0.5,0.2,0.7,0.2c0.3,0,0.5-0.1,0.8-0.2c0.2-0.1,0.4-0.3,0.6-0.5c0.2-0.2,0.3-0.4,0.4-0.7
		c0.1-0.2,0.1-0.5,0.1-0.8c0-0.3,0-0.5-0.1-0.8c-0.1-0.2-0.2-0.5-0.4-0.7c-0.2-0.2-0.4-0.3-0.6-0.5c-0.2-0.1-0.5-0.2-0.7-0.2
		c-0.3,0-0.5,0.1-0.8,0.2c-0.2,0.1-0.4,0.3-0.6,0.5c-0.2,0.2-0.3,0.4-0.4,0.7C32,16.1,32,16.4,32,16.6z"/>
	<path class="st1" d="M40.4,14.6h-1.8v4.5h-0.5v-4.5h-1.8v-0.4h4V14.6z"/>
	<path class="st1" d="M44.4,18.7v0.4h-3.3v-5h3.3v0.4h-2.8v1.8H44v0.4h-2.4v1.9H44.4z"/>
	<path class="st1" d="M45.4,19.1v-5h0.5v4.5h2.9v0.4H45.4z"/>
	<path class="st1" d="M52.4,15.1c-0.1-0.2-0.3-0.3-0.6-0.4s-0.5-0.1-0.8-0.1c-0.4,0-0.8,0.1-1,0.2s-0.3,0.4-0.3,0.7
		c0,0.1,0,0.3,0.1,0.4c0.1,0.1,0.1,0.2,0.2,0.2c0.1,0.1,0.3,0.1,0.4,0.2c0.2,0.1,0.4,0.1,0.6,0.2c0.3,0.1,0.5,0.1,0.7,0.2
		s0.4,0.2,0.5,0.3c0.1,0.1,0.3,0.2,0.3,0.4c0.1,0.1,0.1,0.3,0.1,0.6c0,0.2,0,0.4-0.1,0.6s-0.2,0.3-0.4,0.4S52,19,51.8,19.1
		c-0.2,0.1-0.5,0.1-0.7,0.1c-0.8,0-1.4-0.2-2-0.7l0.2-0.4c0.1,0.1,0.2,0.2,0.3,0.3c0.1,0.1,0.3,0.2,0.4,0.2c0.2,0.1,0.3,0.1,0.5,0.1
		c0.2,0,0.4,0.1,0.5,0.1c0.4,0,0.7-0.1,0.9-0.2s0.3-0.4,0.3-0.6c0-0.2,0-0.3-0.1-0.4c-0.1-0.1-0.2-0.2-0.3-0.3
		c-0.1-0.1-0.3-0.1-0.5-0.2c-0.2-0.1-0.4-0.1-0.7-0.2c-0.3-0.1-0.5-0.1-0.7-0.2c-0.2-0.1-0.4-0.1-0.5-0.2c-0.1-0.1-0.2-0.2-0.3-0.4
		c-0.1-0.1-0.1-0.3-0.1-0.5c0-0.2,0-0.4,0.1-0.6c0.1-0.2,0.2-0.3,0.4-0.4c0.2-0.1,0.3-0.2,0.6-0.3c0.2-0.1,0.5-0.1,0.7-0.1
		c0.3,0,0.6,0,0.9,0.2s0.5,0.2,0.7,0.4L52.4,15.1z"/>
</g>
<g>
	<path d="M27.8,3.6v2.9h3.9V3.6h1.2v7.6h-1.2V7.6h-3.9v3.6h-1.2V3.6H27.8z"/>
	<path d="M37.3,3.6v7.6h-1.2V3.6H37.3z"/>
	<path d="M41.6,3.6v6.5h3v1.1h-4.2V3.6H41.6z"/>
	<path d="M48.2,3.6v6.5h3v1.1h-4.2V3.6H48.2z"/>
	<path d="M56,3.6c0.7,0,1.4,0.2,1.8,0.6s0.7,1,0.7,1.7s-0.2,1.3-0.7,1.7S56.8,8.3,56,8.3h-1.1v2.9h-1.2V3.6H56z M54.9,7.2H56
		c0.4,0,0.8-0.1,1-0.3s0.4-0.5,0.4-0.9c0-0.4-0.1-0.7-0.4-0.9s-0.6-0.3-1-0.3h-1.1V7.2z"/>
	<path d="M67.7,11.2h-1.3l-0.9-2h-3.2l-0.9,2h-1.3l3.9-7.8L67.7,11.2z M62.7,8.1h2.2l-1.1-2.3L62.7,8.1z"/>
	<path d="M72.4,3.6c0.7,0,1.4,0.2,1.8,0.6s0.7,1,0.7,1.7c0,0.5-0.1,1-0.5,1.4c-0.3,0.4-0.7,0.7-1.2,0.8l2.1,3.1H74l-2-2.9h-0.8v2.9
		H70V3.6H72.4z M71.2,7.2h1.1c0.4,0,0.8-0.1,1-0.3c0.2-0.2,0.4-0.5,0.4-0.9c0-0.4-0.1-0.7-0.4-0.9c-0.2-0.2-0.6-0.3-1-0.3h-1.1V7.2z
		"/>
	<path d="M79.1,3.6v3.2l3-3.2h1.4l-3.3,3.6l3.5,4h-1.4l-3.1-3.7v3.7h-1.2V3.6H79.1z"/>
</g>
</svg>
